<?xml version="1.0" encoding="iso-8859-1"?>
<!-- Uploaded to: SVG Repo, www.svgrepo.com, Generator: SVG Repo Mixer Tools -->
<!DOCTYPE svg PUBLIC "-//W3C//DTD SVG 1.1//EN" "http://www.w3.org/Graphics/SVG/1.1/DTD/svg11.dtd">
<svg fill="#000000" version="1.1" id="Capa_1" xmlns="http://www.w3.org/2000/svg" xmlns:xlink="http://www.w3.org/1999/xlink" 
	 width="800px" height="800px" viewBox="0 0 42.219 42.22"
	 xml:space="preserve">
<g>
	<path d="M38.839,11.564l-9.646-3.233C27.979,3.551,23.653,0,18.5,0C12.407,0,7.451,4.956,7.451,11.049
		c0,3.126,1.278,6.395,2.916,9.312l-7.363,4.561L16.056,42.22l23.159-17.476L38.839,11.564z M18.5,3c4.438,0,8.048,3.61,8.048,8.049
		c0,5.521-5.66,12.613-8.066,15.381c-2.412-2.691-8.029-9.584-8.029-15.381C10.452,6.611,14.062,3,18.5,3z M16.646,38.018
		L7.381,25.74l4.562-2.826c2.553,3.812,5.282,6.582,5.496,6.795l1.081,1.082l1.061-1.102c0.397-0.414,9.522-10.007,9.928-18.088
		l6.392,2.143l0.271,9.54L16.646,38.018z M33.559,15.53c0.686,0.91,0.504,2.203-0.404,2.889c-0.909,0.687-2.203,0.506-2.889-0.403
		c-0.687-0.909-0.505-2.203,0.403-2.89C31.581,14.44,32.874,14.621,33.559,15.53z M18.562,14.887c-2.485,0-4.5-2.016-4.5-4.5
		c0-2.485,2.015-4.5,4.5-4.5c2.485,0,4.5,2.015,4.5,4.5C23.063,12.872,21.047,14.887,18.562,14.887z"/>
</g>
</svg>